<?xml version="1.0" standalone="no"?>
<!DOCTYPE svg PUBLIC "-//W3C//DTD SVG 20010904//EN"
 "http://www.w3.org/TR/2001/REC-SVG-20010904/DTD/svg10.dtd">
<svg version="1.0" xmlns="http://www.w3.org/2000/svg"
 width="2296.000000pt" height="2296.000000pt" viewBox="0 0 2296.000000 2296.000000"
 preserveAspectRatio="xMidYMid meet">
<metadata>
Created by potrace 1.11, written by Peter Selinger 2001-2013
</metadata>
<g transform="translate(0.000000,2296.000000) scale(0.100000,-0.100000)"
fill="#000000" stroke="none">
<path d="M12629 22917 c6 -15 13 -38 15 -50 3 -12 14 -53 25 -92 18 -65 29
-106 95 -355 30 -117 112 -455 137 -570 10 -47 28 -125 39 -175 11 -49 37
-169 56 -265 20 -96 38 -184 40 -195 2 -11 20 -108 39 -216 20 -108 38 -207
40 -220 5 -25 39 -233 50 -304 22 -143 37 -245 41 -275 2 -19 6 -48 9 -65 3
-16 7 -52 10 -80 3 -27 8 -61 10 -75 2 -14 7 -51 10 -83 4 -32 8 -66 10 -75 1
-9 6 -45 10 -79 4 -35 8 -75 10 -90 2 -16 6 -62 10 -103 3 -41 8 -86 10 -100
3 -14 7 -53 10 -87 3 -35 7 -91 10 -125 15 -166 21 -251 30 -393 3 -49 8 -121
10 -160 18 -260 25 -545 25 -980 0 -388 -2 -471 -10 -478 -4 -4 -117 -28 -238
-52 -12 -2 -26 -6 -30 -9 -5 -3 -31 -8 -58 -12 -27 -3 -52 -8 -56 -11 -5 -2
-16 -6 -27 -8 -10 -2 -61 -13 -112 -24 -52 -11 -109 -23 -128 -26 -19 -3 -37
-8 -41 -10 -4 -2 -22 -7 -41 -10 -19 -3 -104 -21 -190 -40 -86 -19 -167 -36
-180 -39 -13 -2 -42 -9 -64 -14 -22 -6 -51 -13 -65 -16 -59 -10 -195 -40 -335
-71 -82 -19 -161 -36 -175 -39 -14 -3 -36 -7 -50 -10 -14 -3 -41 -9 -60 -13
-41 -8 -31 -6 -100 -21 -30 -7 -64 -14 -75 -17 -11 -3 -72 -16 -135 -30 -63
-14 -126 -27 -140 -30 -14 -3 -36 -8 -50 -11 -14 -2 -45 -9 -70 -14 -25 -6
-54 -12 -65 -15 -11 -2 -132 -29 -270 -59 -137 -30 -261 -57 -275 -60 -14 -3
-59 -12 -100 -21 -41 -9 -84 -19 -95 -21 -11 -2 -60 -13 -110 -24 -139 -31
-632 -139 -658 -144 -12 -2 -87 -19 -167 -36 -80 -18 -156 -34 -170 -37 -13
-2 -61 -13 -106 -23 -45 -11 -95 -22 -111 -24 -15 -3 -80 -17 -143 -31 -63
-15 -124 -28 -135 -30 -11 -1 -74 -15 -140 -30 -66 -15 -131 -29 -145 -31 -14
-3 -65 -14 -115 -26 -49 -11 -142 -31 -205 -45 -142 -30 -129 -27 -274 -58
-67 -14 -139 -30 -161 -35 -39 -9 -119 -27 -220 -49 -27 -6 -59 -13 -70 -15
-47 -9 -365 -78 -420 -91 -61 -15 -359 -80 -405 -89 -22 -4 -131 -28 -185 -40
-61 -14 -163 -36 -185 -40 -14 -3 -77 -16 -140 -31 -63 -14 -124 -27 -135 -29
-11 -3 -83 -18 -160 -35 -77 -16 -152 -32 -167 -35 -15 -2 -31 -7 -35 -9 -5
-3 -24 -8 -43 -11 -19 -3 -170 -35 -335 -71 -165 -36 -394 -86 -510 -111 -115
-25 -219 -48 -230 -50 -11 -3 -29 -7 -40 -9 -11 -3 -31 -7 -45 -10 -14 -4 -36
-8 -50 -11 -14 -3 -97 -21 -185 -40 -88 -19 -171 -37 -185 -40 -14 -3 -63 -14
-110 -24 -47 -10 -96 -21 -110 -24 -85 -18 -120 -28 -120 -34 0 -9 50 -179
148 -502 28 -91 86 -284 130 -430 44 -146 113 -371 152 -500 103 -339 111
-363 115 -380 2 -8 20 -69 40 -135 38 -125 135 -446 275 -910 97 -324 146
-485 165 -545 8 -25 28 -90 44 -145 34 -115 89 -298 131 -435 16 -52 65 -216
110 -365 45 -148 94 -313 110 -365 156 -515 233 -767 235 -780 2 -8 8 -28 13
-45 18 -56 144 -470 147 -485 2 -8 18 -60 36 -115 17 -55 34 -113 39 -130 4
-16 31 -106 60 -200 28 -93 88 -289 132 -435 44 -146 101 -337 128 -425 27
-88 119 -394 205 -680 85 -286 160 -531 165 -545 9 -26 39 -127 110 -365 23
-77 44 -147 47 -155 3 -8 7 -20 9 -27 1 -6 16 -56 32 -110 25 -80 137 -450
306 -1011 21 -69 23 -71 41 -57 36 28 213 160 235 175 13 8 28 20 34 25 6 6
74 57 151 115 202 152 556 425 730 564 83 66 193 154 245 195 52 42 97 78 100
81 3 3 52 44 110 90 95 77 143 117 174 145 6 6 36 30 66 55 30 25 57 47 60 50
3 3 48 41 100 85 52 44 100 85 106 90 6 6 37 33 69 60 32 28 70 61 84 74 14
12 46 39 70 60 24 20 49 41 55 46 6 6 56 51 111 100 55 50 113 103 130 119 16
15 52 47 78 70 27 22 70 61 96 86 26 25 94 88 150 140 481 444 1078 1056 1506
1545 313 358 582 687 809 990 53 72 102 137 109 145 7 8 38 51 70 95 31 44 60
85 65 90 30 37 222 318 222 325 0 4 4 10 8 12 22 9 366 553 525 830 157 274
357 643 387 718 6 14 21 45 34 70 37 69 197 420 256 560 29 69 58 139 65 155
8 17 26 62 41 100 14 39 32 84 39 100 82 195 312 893 360 1095 2 8 18 69 35
135 46 181 115 492 149 675 20 104 23 121 36 210 4 25 8 52 10 60 1 8 6 38 10
65 5 28 9 52 10 55 0 3 5 37 10 75 5 39 9 72 10 75 1 3 5 37 9 75 4 39 10 81
11 95 2 14 6 54 10 90 3 36 8 76 10 90 2 14 7 68 11 120 3 52 8 111 9 130 28
309 27 1223 0 1500 -2 19 -6 71 -10 115 -11 138 -22 265 -30 325 -3 19 -7 55
-10 80 -6 53 -12 98 -21 160 -3 25 -8 58 -10 73 -6 53 -15 113 -31 207 -8 52
-16 104 -18 115 -17 116 -109 569 -141 700 -13 55 -26 109 -28 120 -6 33 -96
373 -123 465 -13 47 -26 93 -28 102 -17 79 -190 606 -287 873 -72 196 -238
620 -287 729 -10 22 -40 91 -66 151 -50 116 -65 149 -139 308 -25 54 -46 101
-46 103 0 6 -298 603 -366 734 -46 88 -74 127 -55 77z"/>
<path d="M18395 18319 c-16 -5 -41 -11 -55 -13 -50 -9 -126 -25 -195 -41 -38
-9 -77 -18 -85 -20 -45 -9 -177 -37 -190 -40 -17 -4 -337 -74 -360 -79 -8 -2
-33 -7 -55 -11 -22 -5 -44 -9 -50 -11 -18 -4 -159 -35 -185 -40 -14 -3 -45
-10 -70 -15 -25 -6 -52 -12 -60 -14 -8 -2 -80 -18 -160 -35 -80 -17 -235 -51
-345 -75 -110 -24 -215 -47 -234 -50 -19 -3 -37 -8 -41 -10 -4 -2 -21 -7 -39
-10 -17 -3 -103 -21 -189 -40 -87 -18 -169 -36 -183 -39 -13 -2 -53 -11 -89
-20 -36 -8 -76 -17 -90 -20 -14 -2 -79 -16 -145 -31 -66 -15 -126 -27 -132
-28 -18 -1 -16 -23 12 -145 28 -117 71 -316 80 -372 3 -19 8 -42 10 -50 8 -27
80 -453 90 -527 10 -79 15 -119 20 -142 2 -12 7 -52 11 -89 3 -36 7 -74 9 -83
2 -10 6 -46 10 -80 3 -34 8 -76 10 -93 2 -17 7 -65 10 -106 4 -41 8 -91 10
-110 2 -19 6 -75 10 -125 3 -49 8 -112 10 -140 29 -385 24 -1143 -10 -1585 -3
-41 -8 -104 -11 -140 -2 -36 -6 -83 -9 -105 -3 -22 -7 -71 -10 -110 -3 -38 -8
-81 -10 -95 -2 -14 -7 -56 -11 -95 -3 -38 -8 -77 -9 -85 -1 -8 -6 -40 -10 -70
-3 -30 -8 -67 -11 -82 -2 -16 -6 -40 -8 -55 -3 -16 -8 -57 -12 -93 -4 -36 -8
-67 -9 -70 -1 -3 -5 -27 -9 -55 -14 -88 -52 -310 -61 -355 -3 -14 -8 -41 -11
-60 -3 -19 -14 -78 -25 -130 -11 -52 -22 -106 -24 -120 -7 -40 -30 -143 -69
-310 -20 -85 -39 -165 -41 -177 -3 -12 -10 -34 -15 -48 -5 -14 -8 -25 -5 -25
2 0 -1 -15 -6 -32 -6 -18 -12 -43 -15 -54 -7 -34 -113 -424 -129 -474 -8 -25
-30 -99 -50 -165 -82 -274 -321 -974 -365 -1070 -5 -11 -34 -85 -65 -165 -31
-80 -62 -158 -70 -175 -7 -16 -31 -75 -53 -131 -43 -106 -221 -516 -292 -669
-118 -254 -168 -358 -325 -670 -205 -407 -442 -848 -543 -1015 -12 -19 -25
-42 -29 -50 -8 -18 -285 -488 -323 -550 -5 -8 -44 -71 -86 -140 -257 -419
-607 -954 -911 -1390 -25 -36 -70 -101 -101 -145 -199 -285 -735 -1007 -989
-1332 -81 -104 -178 -228 -217 -278 -39 -49 -73 -92 -76 -95 -3 -3 -59 -72
-125 -155 -143 -179 -503 -617 -664 -806 -64 -74 -134 -157 -156 -183 -22 -27
-49 -58 -60 -71 -11 -12 -38 -43 -60 -69 -22 -26 -53 -62 -69 -79 -15 -18 -49
-57 -74 -87 -26 -30 -54 -62 -62 -70 -8 -8 -58 -64 -109 -125 -52 -60 -102
-117 -110 -126 -9 -9 -43 -47 -76 -84 -33 -38 -67 -75 -75 -84 -9 -9 -67 -74
-130 -146 -63 -71 -124 -139 -135 -150 -11 -11 -61 -65 -110 -120 -50 -55 -99
-109 -110 -120 -11 -12 -56 -61 -100 -109 -44 -49 -93 -103 -110 -120 -105
-113 -285 -304 -310 -330 -16 -17 -45 -48 -64 -69 l-35 -39 34 15 c120 51 220
95 327 143 68 30 180 79 250 110 71 31 146 65 168 74 22 10 83 37 135 60 52
23 109 48 125 55 17 8 282 125 590 260 308 136 584 258 613 271 29 13 80 36
115 50 34 14 82 35 107 47 25 11 74 33 110 49 36 16 86 39 112 50 36 16 67 45
128 117 44 53 98 116 119 141 68 79 352 430 487 600 307 388 508 651 766 1005
92 127 171 235 176 240 4 6 61 86 127 180 389 551 814 1203 1096 1678 35 59
71 120 80 135 9 15 32 54 51 87 19 33 61 105 93 160 32 55 69 120 83 145 14
25 55 99 92 165 37 66 91 165 121 220 29 55 70 132 91 170 56 104 375 743 437
875 93 198 127 273 164 355 19 44 46 105 60 135 13 30 59 138 102 240 104 249
98 236 130 315 15 39 31 79 36 90 158 370 441 1219 589 1765 22 80 44 161 50
180 6 19 28 107 50 195 22 88 38 142 35 120 -2 -22 -7 -67 -10 -100 -5 -55 -9
-94 -20 -180 -2 -16 -9 -68 -15 -115 -5 -47 -12 -95 -14 -107 -3 -12 -7 -48
-11 -80 -3 -32 -8 -65 -10 -73 -2 -8 -6 -37 -10 -65 -3 -27 -15 -106 -26 -175
-11 -69 -22 -141 -25 -160 -3 -19 -7 -46 -10 -60 -2 -14 -7 -41 -10 -60 -2
-19 -8 -48 -11 -65 -4 -16 -7 -32 -8 -35 -1 -3 -4 -27 -9 -55 -4 -27 -28 -151
-53 -275 -53 -265 -48 -242 -63 -305 -6 -27 -14 -61 -16 -75 -3 -14 -7 -33
-10 -42 -3 -9 -6 -25 -8 -35 -3 -10 -12 -49 -21 -88 -9 -38 -18 -77 -20 -85
-2 -12 -31 -132 -51 -210 -2 -8 -13 -51 -25 -95 -11 -44 -22 -87 -24 -95 -17
-83 -160 -564 -246 -830 -114 -348 -324 -929 -394 -1085 -7 -16 -40 -95 -73
-175 -61 -146 -154 -363 -197 -455 -13 -27 -34 -75 -48 -105 -305 -673 -774
-1530 -1222 -2235 -126 -198 -466 -711 -525 -790 -22 -30 -40 -57 -40 -60 0
-4 -6 -13 -12 -20 -23 -26 -33 -40 -57 -78 l-23 -37 29 15 c29 16 127 60 253
115 41 18 93 40 115 50 32 14 435 192 1107 488 24 10 74 32 111 48 37 16 78
38 91 49 13 11 50 70 82 130 32 61 84 160 116 220 66 125 402 799 443 890 15
33 47 101 70 150 83 175 221 488 318 720 164 392 326 816 452 1185 32 91 63
181 70 200 8 19 35 103 60 185 26 83 53 168 60 190 20 59 172 577 180 615 2 8
26 105 55 215 28 110 53 209 56 220 2 11 6 29 8 40 2 11 9 40 16 65 7 25 14
56 17 70 2 13 13 60 23 105 10 44 33 150 50 235 18 85 34 164 36 175 2 11 9
47 15 80 20 118 42 220 46 225 5 5 -2 -149 -12 -285 -2 -33 -7 -103 -10 -155
-10 -151 -13 -191 -19 -255 -3 -33 -8 -94 -11 -135 -3 -41 -7 -91 -10 -110 -2
-19 -7 -64 -10 -100 -4 -36 -8 -76 -10 -90 -2 -14 -6 -52 -10 -85 -8 -84 -41
-350 -50 -406 -5 -29 -13 -84 -21 -145 -2 -23 -6 -50 -8 -60 -2 -11 -7 -44
-11 -74 -4 -30 -9 -64 -11 -75 -2 -11 -15 -87 -29 -170 -14 -82 -27 -161 -30
-175 -3 -14 -9 -50 -15 -80 -11 -61 -24 -124 -35 -180 -1 -3 -5 -25 -9 -50
-10 -54 -10 -56 -31 -150 -9 -41 -18 -86 -21 -100 -2 -14 -9 -43 -14 -65 -9
-35 -74 -319 -85 -369 -3 -10 -11 -42 -19 -70 -8 -28 -17 -62 -19 -76 -3 -14
-12 -50 -21 -81 -9 -31 -18 -65 -20 -75 -2 -11 -10 -39 -17 -64 -7 -25 -13
-50 -15 -57 -8 -43 -137 -472 -206 -688 -59 -186 -227 -670 -252 -730 -22 -49
-116 -301 -116 -309 0 -6 24 3 115 44 28 12 64 28 80 35 17 7 57 25 90 40 91
41 460 204 549 242 44 19 108 47 144 63 35 17 65 30 67 30 2 0 36 15 77 34 40
18 163 73 273 121 110 48 218 95 240 105 22 10 83 37 135 60 52 23 113 50 135
60 22 10 130 57 240 105 110 48 228 100 263 116 35 16 65 29 68 29 2 0 43 18
90 40 47 22 87 40 89 40 2 0 39 16 82 36 43 20 87 40 98 44 11 4 139 60 285
125 146 64 398 175 560 247 162 71 323 143 358 159 34 16 64 29 66 29 4 0 34
13 185 81 l43 20 -7 107 c-4 59 -8 121 -10 137 -4 36 -15 164 -20 238 -2 28
-6 84 -10 122 -10 118 -15 177 -20 245 -8 104 -16 192 -20 235 -3 22 -7 76
-10 120 -5 74 -8 113 -20 250 -3 28 -7 84 -10 125 -3 41 -7 95 -10 120 -2 25
-7 79 -10 120 -3 41 -8 98 -10 125 -2 28 -7 84 -10 125 -3 41 -7 95 -10 120
-3 25 -8 79 -11 120 -3 41 -7 93 -9 115 -2 22 -6 74 -9 115 -6 71 -12 149 -21
250 -2 25 -7 81 -10 125 -4 44 -8 98 -10 120 -2 22 -6 76 -10 120 -3 44 -8
100 -10 125 -2 25 -7 77 -10 115 -5 68 -11 134 -20 245 -5 63 -12 147 -20 235
-3 33 -7 92 -10 130 -3 39 -7 95 -10 125 -3 30 -8 87 -10 125 -3 39 -7 88 -10
110 -7 71 -22 253 -30 375 -3 41 -7 95 -10 120 -9 86 -14 145 -20 235 -3 50
-8 106 -10 125 -2 19 -7 71 -10 115 -3 44 -8 103 -10 130 -9 102 -14 162 -20
240 -5 78 -11 140 -20 240 -8 84 -14 156 -20 250 -3 50 -8 104 -10 120 -2 17
-7 71 -10 120 -3 50 -8 106 -10 125 -2 19 -7 69 -10 110 -3 41 -8 102 -11 135
-9 109 -13 149 -19 230 -9 114 -14 183 -19 240 -3 28 -8 84 -11 125 -3 41 -8
93 -10 115 -2 22 -7 81 -10 130 -4 50 -8 106 -10 125 -2 19 -6 71 -10 115 -3
44 -8 100 -10 125 -2 25 -7 79 -10 120 -3 41 -8 102 -11 135 -2 33 -7 85 -9
115 -3 30 -7 82 -10 115 -3 33 -7 87 -10 120 -6 73 -14 172 -20 245 -12 133
-15 170 -20 245 -4 44 -8 100 -11 125 -4 49 -12 137 -19 240 -3 36 -7 88 -10
115 -3 28 -7 83 -10 124 -3 40 -7 92 -10 115 -2 22 -7 77 -10 121 -3 44 -7
100 -10 125 -2 25 -6 79 -10 120 -3 41 -8 98 -10 125 -2 28 -7 84 -10 125 -3
41 -8 98 -10 125 -3 28 -7 77 -10 110 -16 197 -20 238 -30 370 -4 44 -8 98
-10 120 -8 96 -16 193 -20 235 -2 25 -7 81 -10 125 -4 44 -8 98 -10 120 -2 22
-6 76 -10 120 -3 44 -8 98 -10 120 -2 22 -7 78 -10 125 -4 47 -8 101 -10 120
-2 19 -7 78 -10 130 -3 52 -8 106 -10 120 -2 14 -7 68 -10 120 -4 52 -9 109
-10 125 -1 17 -6 66 -9 110 -4 44 -9 98 -11 120 -2 22 -7 83 -11 135 -4 52 -8
106 -10 120 -1 14 -2 42 -3 63 -1 34 -3 37 -28 36 -16 0 -41 -5 -58 -10z"/>
</g>
</svg>
